<?xml version="1.0" encoding="utf-8"?>
<!-- Generator: Adobe Illustrator 25.1.0, SVG Export Plug-In . SVG Version: 6.00 Build 0)  -->
<svg version="1.1" id="Layer_1" xmlns="http://www.w3.org/2000/svg" xmlns:xlink="http://www.w3.org/1999/xlink" x="0px" y="0px"
	 viewBox="0 0 1063.29 1039.17" style="enable-background:new 0 0 1063.29 1039.17;" xml:space="preserve">
<style type="text/css">
	.st0{fill:#0244AE;}
</style>
<g>
	<path class="st0" d="M90.54,533.86c0-91.27-0.18-182.54,0.06-273.81c0.22-81.72,59.81-142.92,140.9-143.29
		c137.31-0.62,274.63-0.25,411.94-0.05c6.91,0.01,16.75-3.77,20.11,4.17c3.36,7.94-6.75,11.82-10.84,17.56
		c-29.14,40.89-67.35,54.37-118.31,52c-92.71-4.32-185.77-1.35-278.68-1.18c-68.49,0.12-92.43,23.99-92.45,91.87
		c-0.06,169.38-0.06,338.76,0,508.14c0.03,66.86,24.05,91.45,90.33,91.53c170.2,0.2,340.41,0.01,510.61,0.16
		c15.77,0.01,31.42-1.11,46.24-6.15c26.9-9.14,41.75-33.29,41.86-68.49c0.32-101.96,1.99-203.97-0.75-305.85
		c-1.09-40.45,7.66-72.18,40.91-95.93c10.49-7.49,18.94-27.18,29.23-22.93c13.16,5.44,5.53,24.88,5.58,38.01
		c0.52,128.27,0.43,256.54,0.27,384.81c-0.11,89.2-59.38,148.94-148.17,149.04c-180.07,0.2-360.14,0.19-540.21,0.01
		c-89.34-0.09-148.4-59.15-148.58-148.3C90.39,714.75,90.54,624.3,90.54,533.86z"/>
	<path class="st0" d="M996.55,179.29c-0.73,18.7-8.63,39.77-25.88,56.76c-107.09,105.46-214.3,210.8-321.28,316.37
		c-8.09,7.99-17.74,11.53-28.17,14c-54.31,12.86-108.79,25.03-162.89,38.74c-21.84,5.53-24.1-1.8-19.36-20.67
		c13.38-53.34,25.78-106.92,38.33-160.46c3.08-13.14,9.04-24.01,18.7-33.8c102.13-103.45,203.77-207.39,305.94-310.8
		c42.43-42.95,93.79-43.03,137.08-1.28c11.23,10.83,22.42,21.75,32.94,33.26C988.67,129.67,996.84,151.37,996.55,179.29z
		 M550.58,506.83c19.29-7.92,47.47-5.66,68.91-27.08c94.74-94.63,190.64-188.11,286.02-282.1c22.1-21.78,21.96-25.75,0.45-47.74
		c-3.45-3.52-6.95-6.99-10.45-10.46c-24.38-24.2-26.16-24.31-50.8,0.72c-89.32,90.76-177.6,182.57-268.42,271.81
		c-24.99,24.56-33.33,53.1-39.74,84.46C535.09,503.64,533.65,510.31,550.58,506.83z"/>
</g>
</svg>
