<?xml version="1.0" encoding="utf-8"?>
<!-- Generator: Adobe Illustrator 25.2.0, SVG Export Plug-In . SVG Version: 6.00 Build 0)  -->
<svg version="1.1" id="Layer_1" xmlns="http://www.w3.org/2000/svg" xmlns:xlink="http://www.w3.org/1999/xlink" x="0px" y="0px"
	 viewBox="0 0 1063.3 1039.2" style="enable-background:new 0 0 1063.3 1039.2;" xml:space="preserve">
<style type="text/css">
	.st0{fill:#5A84FC;}
</style>
<path class="st0" d="M752.6,278.5c-119.4,95.4-240.8,188.2-357.1,287.2c-48.7,41.5-82.5,39.9-128.2-1.8
	C210.9,512.4,148,468.1,88.5,419.8c-60.7-49.4-56.3-87.7,15.6-110.9C374.7,221.7,645.7,135.7,917,51c65.7-20.5,94.7,8.2,74.2,73.8
	c-84.7,271.3-170.6,542.3-257.8,812.9c-22.7,70.3-60.9,77.2-106.8,21.5C571,891.6,519,821.1,462.4,754.4
	c-28.7-33.9-23.8-59.1,2.4-91.3c100.6-123.5,199.2-248.7,298.6-373.3L752.6,278.5z"/>
</svg>
