<?xml version="1.0" encoding="utf-8"?>
<!-- Generator: Adobe Illustrator 25.2.0, SVG Export Plug-In . SVG Version: 6.00 Build 0)  -->
<svg version="1.1" id="Layer_1" xmlns="http://www.w3.org/2000/svg" xmlns:xlink="http://www.w3.org/1999/xlink" x="0px" y="0px"
	 viewBox="0 0 1063.3 1039.2" style="enable-background:new 0 0 1063.3 1039.2;" xml:space="preserve">
<style type="text/css">
	.st0{fill:#6C7A91;stroke:#6C7A91;stroke-width:52;stroke-miterlimit:10;}
</style>
<g>
	<path class="st0" d="M819.1,368c-2.3,80.3-36.4,154.1-103.1,211.8c-18.5,16-14.3,20.5,4.5,30.8c132.3,72.3,204.3,185.4,221.3,334.3
		c3.8,33.7-0.2,37.6-33.7,38c-7.9,0.1-15.8-0.7-23.6,0.1c-22.6,2.4-30.7-7.6-32.7-30c-14.4-164.5-139.8-291.2-295.8-300.1
		C379.6,642.8,240,745.8,203.6,913c-1,4.8-2.4,9.6-2.6,14.5c-2.7,61,4.8,55.2-67.3,55.6c-22.5,0.1-25.9-12.5-24.7-30.4
		c5-73.1,27.6-140.4,67.6-201.6C216,690.5,267.3,642.4,332,610.3c21.8-10.8,19.1-16.3,3.2-30.9c-89.5-82.2-124.4-183.4-90.2-301.1
		C279.1,161,361.2,91.6,480.7,69.2C653.4,37,818.9,180.1,819.1,368z M322.8,357.3c0.4,116.8,86.8,204.2,202.1,204.4
		C640.5,562,729.6,473.6,729,359.3c-0.6-116.2-87.5-204.2-202.3-204.9C412.1,153.7,322.5,242.9,322.8,357.3z"/>
</g>
<image style="overflow:visible;" width="672" height="94" xlink:href="../../../../Screen Shot 2021-02-16 at 10.09.50 PM.png"  transform="matrix(0.5 0 0 0.5 1792.8313 340.0313)">
</image>
</svg>
