<?xml version="1.0" encoding="utf-8"?>
<!-- Generator: Adobe Illustrator 25.0.1, SVG Export Plug-In . SVG Version: 6.00 Build 0)  -->
<svg version="1.1" id="Layer_1" xmlns="http://www.w3.org/2000/svg" xmlns:xlink="http://www.w3.org/1999/xlink" x="0px" y="0px"
	 viewBox="0 0 12.87 7.9" style="enable-background:new 0 0 12.87 7.9;" xml:space="preserve">
<style type="text/css">
	.st0{fill:#100D84;}
	.st1{fill:#FFFFFF;}
	.st2{fill:#A3A3EF;}
	.st3{fill:#8282C4;}
	.st4{fill:none;stroke:#A3A3EF;stroke-width:0.05;stroke-miterlimit:10;}
</style>
<g>
	<g>
		<path class="st0" d="M3.66,5.36c-0.32,0-0.61-0.07-0.86-0.22c-0.25-0.15-0.45-0.35-0.59-0.6S2,4.01,2,3.7
			c0-0.31,0.07-0.59,0.22-0.84s0.34-0.45,0.59-0.6c0.25-0.15,0.54-0.22,0.86-0.22c0.32,0,0.61,0.07,0.86,0.22
			c0.25,0.15,0.45,0.35,0.59,0.6S5.33,3.39,5.33,3.7c0,0.31-0.07,0.59-0.21,0.84s-0.34,0.45-0.59,0.6C4.27,5.29,3.99,5.36,3.66,5.36
			z M3.67,4.87c0.22,0,0.4-0.05,0.57-0.16c0.16-0.1,0.29-0.24,0.38-0.42C4.71,4.12,4.75,3.92,4.75,3.7S4.71,3.28,4.61,3.11
			C4.52,2.93,4.4,2.79,4.24,2.69c-0.16-0.1-0.35-0.16-0.57-0.16c-0.22,0-0.41,0.05-0.58,0.16C2.93,2.79,2.8,2.93,2.71,3.11
			C2.62,3.28,2.57,3.48,2.57,3.7s0.05,0.42,0.14,0.59C2.8,4.47,2.93,4.61,3.09,4.71C3.26,4.82,3.45,4.87,3.67,4.87z"/>
		<path class="st0" d="M5.84,5.29V3.02c0-0.28,0.08-0.5,0.24-0.66c0.16-0.16,0.38-0.24,0.66-0.24H7.4v0.49H6.85
			c-0.14,0-0.24,0.04-0.32,0.12C6.45,2.8,6.41,2.91,6.41,3.05v2.23H5.84z"/>
		<path class="st0" d="M8.01,1.61c-0.1,0-0.19-0.04-0.27-0.12C7.66,1.42,7.63,1.33,7.63,1.22c0-0.1,0.04-0.19,0.12-0.27
			c0.08-0.08,0.17-0.12,0.27-0.12c0.1,0,0.19,0.04,0.27,0.12C8.36,1.03,8.4,1.12,8.4,1.22c0,0.1-0.04,0.19-0.12,0.27
			C8.2,1.57,8.11,1.61,8.01,1.61z M7.72,5.29V2.12H8.3v3.17H7.72z"/>
		<path class="st0" d="M9.29,1.61c-0.1,0-0.19-0.04-0.27-0.12C8.94,1.42,8.9,1.33,8.9,1.22c0-0.1,0.04-0.19,0.12-0.27
			c0.08-0.08,0.17-0.12,0.27-0.12c0.1,0,0.19,0.04,0.27,0.12c0.08,0.08,0.12,0.17,0.12,0.27c0,0.1-0.04,0.19-0.12,0.27
			C9.48,1.57,9.39,1.61,9.29,1.61z M8.99,5.29V2.12h0.58v3.17H8.99z"/>
	</g>
</g>
<circle class="st0" cx="10.53" cy="4.93" r="0.33"/>
<circle class="st0" cx="11.54" cy="4.93" r="0.33"/>
<circle class="st0" cx="12.54" cy="4.93" r="0.33"/>
<path class="st2" d="M3.36,3.71H0.42C0.19,3.71,0,3.52,0,3.29V1.22C0,0.99,0.19,0.8,0.42,0.8h2.94c0.23,0,0.42,0.19,0.42,0.42v2.07
	C3.77,3.52,3.59,3.71,3.36,3.71z"/>
<polygon class="st2" points="3.67,3.55 3.23,4.06 2.95,3.65 "/>
<rect x="0.34" y="1.11" class="st3" width="3.1" height="1.02"/>
<rect x="0.34" y="2.29" class="st3" width="3.1" height="0.19"/>
<rect x="0.34" y="2.58" class="st3" width="3.1" height="0.19"/>
<path class="st3" d="M3.35,3.27H2.61c-0.04,0-0.08-0.04-0.08-0.08V3.07c0-0.04,0.04-0.08,0.08-0.08h0.75c0.04,0,0.08,0.04,0.08,0.08
	v0.12C3.43,3.24,3.4,3.27,3.35,3.27z"/>
<rect x="1.47" y="1.28" class="st4" width="0.93" height="0.66"/>
</svg>
