<?xml version="1.0" encoding="utf-8"?>
<!-- Generator: Adobe Illustrator 25.0.1, SVG Export Plug-In . SVG Version: 6.00 Build 0)  -->
<svg version="1.1" id="Layer_1" xmlns="http://www.w3.org/2000/svg" xmlns:xlink="http://www.w3.org/1999/xlink" x="0px" y="0px"
	 viewBox="0 0 1063.29 1039.17" style="enable-background:new 0 0 1063.29 1039.17;" xml:space="preserve">
<style type="text/css">
	.st0{fill:#100D84;stroke:#100D84;stroke-width:25;stroke-miterlimit:10;}
	.st1{fill:#100D84;stroke:#100D84;stroke-width:7;stroke-miterlimit:10;}
	.st2{fill:#100D84;stroke:#100D84;stroke-width:4;stroke-miterlimit:10;}
	.st3{fill:#100D84;}
</style>
<g>
	<path class="st3" d="M826.89,349.19c-2.27,80.33-36.44,154.13-103.07,211.77c-18.54,16.04-14.32,20.46,4.54,30.77
		c132.34,72.32,204.29,185.4,221.31,334.3c3.85,33.65-0.21,37.57-33.69,38c-7.86,0.1-15.79-0.69-23.56,0.13
		c-22.57,2.39-30.72-7.58-32.68-29.98C845.37,769.64,719.95,642.94,564,634.05c-176.55-10.06-316.16,92.91-352.59,260.09
		c-1.04,4.79-2.43,9.61-2.64,14.45c-2.68,60.97,4.83,55.16-67.34,55.56c-22.54,0.12-25.88-12.47-24.65-30.43
		c4.98-73.1,27.58-140.39,67.57-201.62c39.44-60.39,90.77-108.48,155.46-140.65c21.77-10.83,19.13-16.26,3.21-30.89
		c-89.52-82.22-124.37-183.39-90.16-301.15C286.92,142.23,368.95,72.78,488.51,50.43C661.18,18.14,826.72,161.26,826.89,349.19z
		 M330.62,338.53c0.37,116.81,86.76,204.22,202.05,204.42c115.67,0.2,204.72-88.13,204.13-202.47
		c-0.61-116.18-87.52-204.18-202.33-204.87C419.88,134.93,330.26,224.14,330.62,338.53z"/>
</g>
</svg>
