<?xml version="1.0" encoding="utf-8"?>
<!-- Generator: Adobe Illustrator 25.0.1, SVG Export Plug-In . SVG Version: 6.00 Build 0)  -->
<svg version="1.1" id="Layer_1" xmlns="http://www.w3.org/2000/svg" xmlns:xlink="http://www.w3.org/1999/xlink" x="0px" y="0px"
	 viewBox="0 0 1073.95 1518.07" style="enable-background:new 0 0 1073.95 1518.07;" xml:space="preserve">
<style type="text/css">
	.st0{fill:#100D84;stroke:#100D84;stroke-width:25;stroke-miterlimit:10;}
	.st1{fill:#100D84;stroke:#100D84;stroke-width:7;stroke-miterlimit:10;}
	.st2{fill:#100D84;stroke:#100D84;stroke-width:4;stroke-miterlimit:10;}
	.st3{fill:#100D84;}
</style>
<g>
	<g>
		<path class="st1" d="M138.59,1389.17c-14.41-0.18-27.52-2.74-39.32-7.7c-11.8-4.95-21.98-11.75-30.53-20.4
			c-8.56-8.65-15.18-18.69-19.86-30.13c-4.69-11.44-7.03-23.64-7.03-36.61c0-12.97,2.34-25.13,7.03-36.48
			c4.68-11.35,11.3-21.3,19.86-29.86c8.55-8.55,18.73-15.36,30.53-20.4c11.8-5.04,24.9-7.57,39.32-7.57h21.89v17.29H139.4
			c-10.99,0.18-21.21,2.21-30.67,6.08c-9.46,3.88-17.7,9.28-24.72,16.21c-7.03,6.94-12.48,15.09-16.35,24.45
			c-3.88,9.37-5.81,19.46-5.81,30.26c0,11.17,1.93,21.39,5.81,30.67c3.87,9.28,9.32,17.43,16.35,24.45s15.27,12.48,24.72,16.35
			c9.46,3.88,19.68,5.81,30.67,5.81h21.08v17.56H138.59z"/>
		<path class="st1" d="M254.78,1392.68c-13.87,0-26.21-3.2-37.02-9.59c-10.81-6.39-19.28-15.08-25.4-26.08
			c-6.13-10.99-9.19-23.24-9.19-36.75c0-13.51,3.06-25.76,9.19-36.75c6.12-10.99,14.59-19.68,25.4-26.08
			c10.81-6.39,23.15-9.59,37.02-9.59c13.87,0,26.16,3.2,36.88,9.59c10.72,6.4,19.19,15.04,25.4,25.94
			c6.21,10.9,9.32,23.2,9.32,36.88c0,13.51-3.11,25.76-9.32,36.75c-6.21,10.99-14.68,19.68-25.4,26.08
			C280.95,1389.48,268.65,1392.68,254.78,1392.68z M254.78,1376.2c10.27,0,19.36-2.47,27.29-7.43c7.92-4.95,14.09-11.66,18.51-20.13
			c4.41-8.47,6.62-17.92,6.62-28.37c0-10.45-2.21-19.9-6.62-28.37c-4.42-8.46-10.58-15.17-18.51-20.13
			c-7.93-4.95-17.02-7.43-27.29-7.43c-10.45,0-19.59,2.48-27.43,7.43c-7.84,4.96-13.96,11.67-18.37,20.13
			c-4.42,8.47-6.62,17.93-6.62,28.37c0,10.45,2.2,19.91,6.62,28.37c4.41,8.47,10.54,15.18,18.37,20.13
			C235.19,1373.72,244.33,1376.2,254.78,1376.2z"/>
		<path class="st1" d="M360.7,1389.17v-80.25c0-12.61,2.84-23.46,8.51-32.56c5.67-9.09,13.28-16.12,22.83-21.08
			c9.55-4.95,20.08-7.43,31.62-7.43c11.71,0,22.29,2.48,31.75,7.43c9.46,4.96,17.02,11.98,22.7,21.08
			c5.67,9.1,8.51,19.95,8.51,32.56v80.25h-18.92v-79.44c0-9.55-2.07-17.7-6.21-24.45c-4.15-6.75-9.59-11.93-16.35-15.54
			c-6.75-3.6-14.01-5.4-21.75-5.4c-7.57,0-14.68,1.76-21.35,5.27c-6.67,3.51-12.07,8.65-16.21,15.4c-4.15,6.75-6.21,15-6.21,24.72
			v79.44H360.7z"/>
		<path class="st1" d="M511.75,1267.84v-16.48h94.03v16.48H511.75z M574.98,1389.17c-12.25,0-21.84-3.51-28.78-10.54
			c-6.94-7.03-10.4-16.57-10.4-28.64v-133.21h18.92v131.05c0,7.93,2.03,14.05,6.08,18.38c4.05,4.32,10.04,6.49,17.97,6.49h26.48
			v16.48H574.98z"/>
		<path class="st1" d="M695.49,1392.68c-13.87,0-25.76-3.24-35.67-9.73c-9.91-6.49-17.47-15.17-22.7-26.08
			c-5.23-10.9-7.84-23.1-7.84-36.61c0-13.69,2.88-25.98,8.65-36.88c5.76-10.9,14-19.5,24.72-25.8c10.72-6.3,23.46-9.46,38.23-9.46
			c14.23,0,26.52,3.15,36.88,9.46c10.36,6.31,18.38,14.77,24.05,25.4c5.67,10.63,8.51,22.61,8.51,35.94v70.25h-18.64v-30.8h-0.81
			c-2.52,5.4-6.31,10.77-11.35,16.08c-5.05,5.32-11.21,9.69-18.51,13.11S705.22,1392.68,695.49,1392.68z M699.54,1376.47
			c10.09,0,19-2.47,26.75-7.43c7.74-4.95,13.87-11.71,18.37-20.27c4.5-8.55,6.66-18.24,6.49-29.05c0-10.63-2.07-20.08-6.21-28.37
			c-4.15-8.28-10-14.86-17.56-19.73c-7.57-4.86-16.58-7.3-27.02-7.3c-10.81,0-20.09,2.48-27.83,7.43
			c-7.75,4.96-13.69,11.71-17.83,20.27c-4.15,8.56-6.21,18.24-6.21,29.05c0,10.09,1.98,19.37,5.95,27.83
			c3.96,8.47,9.77,15.18,17.43,20.13C679.5,1373.99,688.73,1376.47,699.54,1376.47z"/>
		<path class="st1" d="M878.96,1389.17c-14.23,0-26.93-3.06-38.1-9.19c-11.17-6.12-20-14.36-26.48-24.72
			c-6.49-10.36-9.73-22.02-9.73-34.99c0-12.97,3.24-24.63,9.73-34.99c6.49-10.36,15.31-18.6,26.48-24.72
			c11.17-6.12,23.87-9.19,38.1-9.19h15.67v16.48h-17.02c-9.91,0-18.92,2.3-27.02,6.89s-14.59,10.86-19.46,18.78
			c-4.86,7.93-7.3,16.85-7.3,26.75c0,9.91,2.43,18.83,7.3,26.75c4.86,7.93,11.35,14.19,19.46,18.78s17.11,6.89,27.02,6.89h17.02
			v16.48H878.96z"/>
		<path class="st1" d="M929.48,1267.84v-16.48h94.03v16.48H929.48z M992.71,1389.17c-12.25,0-21.84-3.51-28.78-10.54
			c-6.94-7.03-10.4-16.57-10.4-28.64v-133.21h18.92v131.05c0,7.93,2.03,14.05,6.08,18.38c4.05,4.32,10.04,6.49,17.97,6.49h26.48
			v16.48H992.71z"/>
	</g>
</g>
<g>
	<path class="st3" d="M833.05,369.38c-2.27,80.33-36.44,154.13-103.07,211.77c-18.54,16.04-14.32,20.46,4.54,30.77
		c132.34,72.32,204.28,185.4,221.31,334.3c3.85,33.65-0.21,37.57-33.69,38c-7.86,0.1-15.79-0.69-23.56,0.13
		c-22.57,2.39-30.72-7.58-32.68-29.98c-14.38-164.54-139.8-291.25-295.75-300.13C393.61,644.19,254,747.16,217.57,914.34
		c-1.04,4.79-2.43,9.61-2.64,14.45c-2.68,60.97,4.83,55.16-67.34,55.56c-22.54,0.12-25.88-12.47-24.65-30.43
		c4.98-73.1,27.58-140.39,67.57-201.62c39.44-60.39,90.77-108.48,155.46-140.65c21.77-10.83,19.13-16.26,3.21-30.89
		c-89.52-82.22-124.37-183.39-90.16-301.15C293.07,162.43,375.1,92.98,494.67,70.62C667.33,38.34,832.87,181.46,833.05,369.38z
		 M336.77,358.73c0.37,116.81,86.76,204.22,202.05,204.42c115.67,0.2,204.72-88.13,204.13-202.47
		c-0.61-116.18-87.52-204.18-202.33-204.87C426.03,155.12,336.41,244.34,336.77,358.73z"/>
</g>
</svg>
