<?xml version="1.0" encoding="utf-8"?>
<!-- Generator: Adobe Illustrator 25.2.0, SVG Export Plug-In . SVG Version: 6.00 Build 0)  -->
<svg version="1.1" id="Layer_1" xmlns="http://www.w3.org/2000/svg" xmlns:xlink="http://www.w3.org/1999/xlink" x="0px" y="0px"
	 viewBox="0 0 480 480" style="enable-background:new 0 0 480 480;" xml:space="preserve">
<style type="text/css">
	.st0{fill:#5A84FC;}
	.st1{fill:#2962FF;}
	.st2{fill:#FFFFFF;}
</style>
<circle class="st0" cx="240" cy="240" r="200"/>
<circle class="st1" cx="240" cy="190" r="40"/>
<path class="st1" d="M240,260c0,0-90,0-90,57.3c0,32.7,16.4,32.7,90,32.7s90,0,90-32.7C330,260,240,260,240,260z"/>
<circle class="st2" cx="240" cy="180" r="40"/>
<path class="st2" d="M240,250c0,0-90,0-90,57.3c0,32.7,16.4,32.7,90,32.7s90,0,90-32.7C330,250,240,250,240,250z"/>
<g>
	<path class="st1" d="M348,234.7L348,234.7c-7,0-12.6-5.7-12.6-12.6v-80.7c0-7,5.7-12.6,12.6-12.6l0,0c7,0,12.6,5.7,12.6,12.6v80.7
		C360.7,229.1,355,234.7,348,234.7z"/>
	<path class="st1" d="M293,178.5L293,178.5c0-7,5.7-12.6,12.6-12.6h80.7c7,0,12.6,5.7,12.6,12.6l0,0c0,7-5.7,12.6-12.6,12.6h-80.7
		C298.7,191.1,293,185.5,293,178.5z"/>
</g>
<path class="st2" d="M354.6,228.4L354.6,228.4c-7,0-12.6-5.7-12.6-12.6v-80.7c0-7,5.7-12.7,12.6-12.7l0,0c7,0,12.6,5.7,12.6,12.7
	v80.7C367.3,222.8,361.6,228.4,354.6,228.4z"/>
<path class="st2" d="M299.6,172.2L299.6,172.2c0-7,5.7-12.6,12.6-12.6H393c7,0,12.6,5.7,12.6,12.6l0,0c0,7-5.7,12.6-12.6,12.6h-80.7
	C305.3,184.9,299.6,179.2,299.6,172.2z"/>
</svg>
