<?xml version="1.0" encoding="utf-8"?>
<!-- Generator: Adobe Illustrator 25.0.1, SVG Export Plug-In . SVG Version: 6.00 Build 0)  -->
<svg version="1.1" id="Layer_1" xmlns="http://www.w3.org/2000/svg" xmlns:xlink="http://www.w3.org/1999/xlink" x="0px" y="0px"
	 viewBox="0 0 1063.29 1039.17" style="enable-background:new 0 0 1063.29 1039.17;" xml:space="preserve">
<style type="text/css">
	.st0{fill:#100D84;stroke:#100D84;stroke-width:52;stroke-miterlimit:10;}
	.st1{fill:#100D84;stroke:#100D84;stroke-width:7;stroke-miterlimit:10;}
	.st2{fill:#100D84;stroke:#100D84;stroke-width:4;stroke-miterlimit:10;}
	.st3{fill:#100D84;}
</style>
<g>
	<path class="st0" d="M981.12,451.94c-11.31-69.33-35.8-133.58-75.91-191.31C831.55,154.57,730.24,90.85,603.85,66.36
		c-14.78-2.87-29.82-3.41-44.82-4.1c-10.78-0.49-21.55-1.02-32.32-1.54h-41.35c-18.62,2.42-37.16,5.22-55.54,9.05
		c-95.04,19.81-175.87,65.03-242.55,135.55C122.73,273.58,84.14,354.7,68.04,446.86c-2.21,12.64-3.53,25.41-4.07,38.25
		c-0.07,1.39-0.39,2.77-0.58,4.16v65.79c1.1,10.88,1.85,21.81,3.37,32.64c6.31,45.11,19.07,88.33,38.58,129.52
		c45.58,96.22,115.72,168.71,210.44,217.23c45.66,23.38,94.1,38.41,144.94,45.42c13.93,1.93,27.99,3.06,42.09,3.17
		c1.7,0.02,3.4,0.38,5.1,0.57h40.41c9.49-0.81,19-1.37,28.47-2.46c48.21-5.55,94.85-17.47,138.71-38.31
		c136.71-64.96,222.74-171.57,259.32-318.25c5.05-20.21,8.48-40.71,9.01-61.61c0.04-1.39,0.37-2.77,0.56-4.16v-73.31
		C983.18,474.34,982.93,463.08,981.12,451.94z M524.13,954.25C296.6,958.77,93.24,768.22,91.14,526.29
		C89.04,285.07,288.63,85.66,523.26,90.06c241.61-3.57,436.12,198.2,432.83,432.03C959.2,755.92,764.83,957.12,524.13,954.25z"/>
</g>
<g>
	<path class="st2" d="M773.02,316c-2.51,68.13-24.69,129.37-64.06,184.79c-24.77,34.87-53.53,65.99-86.17,93.52
		c-6.47,5.46-8.02,10.24-5.78,18.88c8.68,33.53,0.3,64.63-17.35,93.29c-33.44,54.3-82.93,89.41-140.18,114.8
		c-5.03,2.23-10.33,2.72-13.96-2.5c-3.53-5.07-1.4-9.86,1.89-14.26c12.39-16.6,24.44-33.42,33.75-52.03
		c4.83-9.65,8.62-19.67,10.62-30.25c2.15-11.36,0.97-22.18-7.5-31.05c-2.83-2.97-6.17-6.29-10.58-4.32
		c-9.82,4.4-16.7-0.14-22.06-7.31c-7.73-10.31-14.78-9.35-24.93-2.56c-20.87,13.96-42.75,26.43-64.27,39.42
		c-5.72,3.45-11.99,7.63-18.08,1.43c-5.64-5.74-1.87-11.67,1.43-17.14c13.75-22.79,27.21-45.76,41.51-68.2
		c4.78-7.49,5.75-12.68-1.6-18.89c-8.22-6.94-16.39-14.27-10.31-27.28c1.64-3.52-2.42-6.68-5.16-9.13
		c-10.23-9.14-22.31-9-34.53-5.96c-24.95,6.2-45.52,20.83-66.2,35.16c-3.64,2.53-7.16,5.24-10.68,7.94
		c-4.98,3.82-10.33,6.74-16.01,1.99c-5.25-4.39-3.46-10.03-1.09-15.27c9.6-21.27,20.4-41.9,33.94-60.95
		c24.94-35.09,54.24-65.44,93.56-84.62c27.11-13.22,55.13-19.01,84.7-9.03c5.42,1.83,8.15-0.81,11.21-4.41
		c44.41-52.2,96.36-95.07,158.74-123.93c42.77-19.79,88.3-29.03,135.61-28.81c9.22,0.04,13.78,4.06,13.58,13.36
		C772.96,307.11,773.04,311.55,773.02,316z M525.08,516.59c15.89-0.17,21.8,7.01,20.6,23.99c-1.62,23.03-11.1,42.57-25.11,60.46
		c-15.7,20.05-35.4,35.53-55.74,50.39c-2.47,1.81-6.85,3.22-4.5,7.51c1.92,3.5,4.71,7.05,9.42,6.61c2.48-0.23,4.91-1.58,7.25-2.66
		c102.67-47.43,187.02-115.36,242.31-216.03c4.39-7.99,3.46-12.93-2.91-19.17c-27.48-26.89-54.67-54.08-81.55-81.57
		c-6.02-6.15-10.64-6.47-18.14-2.55C554.54,376.03,504.19,422,462.2,477.59c-25.27,33.45-46.53,69.3-63.67,107.62
		c-3.16,7.07-2.39,12.33,3.89,16.15c6.88,4.18,7.89-3.33,10.35-6.51c11.09-14.33,21.85-28.95,35.12-41.38
		C469.67,533.07,493.71,517.13,525.08,516.59z M490.58,778.27c1.21-0.07,2.45,0.23,3.22-0.23c37.29-22.61,71.97-48.16,92.51-88.14
		c10.1-19.65,15.66-40.53,11.11-63.08c-1.37-6.78-3.8-8.19-9.5-4.1c-26.75,19.22-55.3,35.41-84.94,49.67
		c-7.22,3.48-6.85,6.63-2.2,12.37c9.78,12.06,13.36,26.01,10.45,41.51c-2.69,14.37-8.94,27.25-15.88,39.91
		C493.32,769.87,489.69,773.04,490.58,778.27z M283.23,570.11c0.61,0.85,1.21,1.7,1.82,2.56c3.13-1.67,6.27-3.32,9.38-5.02
		c10.04-5.51,20.11-10.97,31.13-14.3c19.96-6.04,39.28-7.76,55.49,9.09c3.78,3.93,5.61,1.4,7.26-2.02
		c14.64-30.32,31.99-59.03,51.36-86.54c4.52-6.42,0.98-8.49-4.61-9.55c-13.24-2.5-26.41-2.56-39.35,1.79
		C342.48,484,310.91,524.98,283.23,570.11z M386.04,678.57c43.65-27.19,87.06-51.19,118.97-90.37
		c8.93-10.96,14.88-23.72,17.24-37.94c1.85-11.18,0.94-12.12-10.66-9.99c-17.64,3.23-32.39,11.89-45.49,23.8
		c-30.78,27.98-51.89,63.21-73.5,98.05C389.98,666.32,385.94,670.06,386.04,678.57z M742.97,309.65
		c-31.2,2.88-58.98,8.27-86.02,17.51c-8.47,2.89-6.11,5.97-1.58,10.48c23.29,23.15,46.55,46.33,69.62,69.71
		c5.48,5.56,8.45,5.83,11.15-2.31c8.9-26.77,13.69-54.29,16.26-82.29C753.24,313.53,750.61,308.14,742.97,309.65z"/>
	<path class="st2" d="M400.03,705.74c-23.36,23.4-46.73,46.81-70.08,70.22c-2.8,2.81-5.61,3.3-8.57,0.25
		c-2.69-2.77-5.34-5.76-1.88-9.48C342.78,741.78,366.08,716.84,400.03,705.74z"/>
	<path class="st2" d="M357.1,662.05c-9.95,29.73-29.96,51.51-51.96,71.79c-3.51,3.23-6.26,2.84-9.41-0.39
		c-2.91-2.98-4.6-5.81-1-9.38C315.53,703.41,336.31,682.73,357.1,662.05z"/>
	<path class="st2" d="M292.14,778.52c-3.7-0.96-5.57-3.29-7.3-5.66c-1.93-2.65-0.5-4.89,1.43-6.83
		c14.59-14.62,29.22-29.18,43.78-43.83c3.55-3.57,6.32-2.42,9.28,0.8c2.37,2.59,4.86,5.06,1.52,8.42
		c-15.07,15.17-30.21,30.28-45.38,45.35C294.51,777.7,292.99,778.08,292.14,778.52z"/>
	<path class="st2" d="M648.87,457.91c0,24.75-19.56,44.74-43.88,44.85c-24.18,0.11-45.3-20.89-45.42-45.16
		c-0.12-24.23,19.87-44.06,44.5-44.15C630.03,413.35,648.88,432.05,648.87,457.91z M604.59,482.47
		c13.69,0.1,25.04-10.74,25.25-24.11c0.21-13.34-11.77-25.61-25.23-25.84c-13.44-0.23-24.5,10.74-24.72,24.53
		C579.65,471.65,590.06,482.37,604.59,482.47z"/>
</g>
</svg>
