<?xml version="1.0" encoding="utf-8"?>
<!-- Generator: Adobe Illustrator 25.0.1, SVG Export Plug-In . SVG Version: 6.00 Build 0)  -->
<svg version="1.1" id="Layer_1" xmlns="http://www.w3.org/2000/svg" xmlns:xlink="http://www.w3.org/1999/xlink" x="0px" y="0px"
	 viewBox="0 0 1044.64 1063.98" style="enable-background:new 0 0 1044.64 1063.98;" xml:space="preserve">
<style type="text/css">
	.st0{fill:#100D84;}
</style>
<g>
	<path class="st0" d="M551.54,1014.49c-14.33,0-28.67,0-43,0c-1.81-0.21-3.62-0.59-5.43-0.61c-15.01-0.11-29.97-1.33-44.8-3.37
		c-54.09-7.46-105.63-23.45-154.22-48.33C203.3,910.56,128.67,833.41,80.18,731.04c-20.76-43.84-34.34-89.82-41.06-137.82
		c-1.61-11.52-2.41-23.15-3.59-34.73c0-23.33,0-46.67,0-70c0.21-1.48,0.55-2.95,0.62-4.43c0.57-13.66,1.98-27.25,4.33-40.7
		c17.13-98.07,58.21-184.38,126.88-257.01C238.3,111.32,324.31,63.2,425.43,42.12c19.57-4.08,39.3-7.06,59.1-9.63
		c14.67,0,29.33,0,44,0c11.46,0.55,22.92,1.12,34.39,1.64c15.97,0.73,31.97,1.31,47.69,4.36c134.49,26.06,242.28,93.86,320.66,206.7
		c42.67,61.43,68.73,129.79,80.76,203.56c1.93,11.85,2.2,23.83,3.49,35.73c0,26,0,52,0,78c-0.21,1.48-0.56,2.95-0.6,4.43
		c-0.57,22.24-4.22,44.06-9.59,65.56C966.43,788.55,874.89,901.99,729.42,971.1c-46.67,22.18-96.29,34.85-147.59,40.77
		C571.76,1013.03,561.64,1013.63,551.54,1014.49z M985.42,523.4c3.5-248.81-203.47-463.5-460.55-459.7
		C275.2,59.02,62.84,271.2,65.07,527.86c2.24,257.43,218.62,460.18,460.72,455.38C781.9,986.28,988.73,772.21,985.42,523.4z"/>
	<path class="st0" d="M838.89,382.3c0.47,3.7-2.15,6.27-4.34,8.94c-19.41,23.73-38.73,47.54-58.37,71.08
		c-65.97,79.07-132.24,157.89-199.79,235.62c-3.39,3.9-6.83,7.75-10.34,11.54c-7.12,7.69-13.16,8.26-21.35,1.88
		c-17.64-13.73-33.9-29.05-50.32-44.18c-4.29-3.95-8.74-7.74-12.79-11.93c-2.56-2.64-4.7-2.68-7.88-1.13
		c-32.04,15.63-64.12,31.18-96.27,46.58c-9.91,4.75-20,9.15-30.13,13.4c-9.02,3.78-13.73,1.72-17.03-7.57
		c-5.66-15.92-7.87-32.66-11.01-49.17c-5.05-26.49-10.02-52.99-14.72-79.54c-0.87-4.92-3.28-7.03-7.81-8.26
		c-38.56-10.49-77.1-21.07-115.61-31.76c-7.85-2.18-15.56-4.91-23.32-7.42c-1.11-0.36-2.16-0.87-3.23-1.33
		c-4.94-2.14-8.71-5.71-8.82-11.13c-0.11-5.61,3.72-9.54,8.52-12.03c5.81-3,12.23-4.31,18.55-5.8
		c47.8-11.31,95.98-20.84,144.08-30.77c113.14-23.37,226.31-46.61,339.48-69.88c53.32-10.96,106.65-21.87,159.99-32.74
		c3.23-0.66,6.49-1.57,9.87-0.94C833.88,367.17,838.99,373.72,838.89,382.3z M351.7,659.79c0.49,0.06,0.99,0.13,1.48,0.19
		c3.1-4.1,6.23-8.17,9.31-12.29c17.14-22.97,33.55-46.48,51.92-68.52c4.24-5.09,9.23-8.97,15.13-12
		c49.35-25.34,98.64-50.82,147.96-76.22c41.92-21.59,83.86-43.12,125.77-64.72c2.62-1.35,5.56-2.34,7.04-5.85
		C551.43,453,392.55,485.61,233.1,518.34c2.09,2.25,4.21,2.23,6.04,2.75c26.27,7.44,52.77,14.07,78.79,22.41
		c8.13,2.61,12.19,7.31,14.09,15.47c5.5,23.7,9.28,47.71,13.87,71.57C347.76,640.31,349.76,650.04,351.7,659.79z M756.99,435.45
		c-2.54,0.09-4.43,1.56-6.44,2.57c-96.94,48.9-193.65,98.23-290.06,148.18c-4.06,2.1-4.21,3.65-1.04,6.73
		c28.82,27.96,58.53,54.94,89.02,81.06c3.66,3.14,5.65,2.28,8.47-0.97c66.64-76.91,132.42-154.56,197.27-232.98
		C755.32,438.72,757.01,437.66,756.99,435.45z M394.99,657.22c0.46,0.04,0.82,0.19,1.07,0.09c17.5-7.71,34.5-16.43,51.53-25.11
		c2.72-1.38,2.51-3.09,0.79-5.16c-4.58-5.51-9.61-10.56-15.03-15.25c-2.13-1.85-3.71-1.43-5.42,0.66
		c-11.48,14.03-22.37,28.5-32.64,43.44C395.05,656.22,395.09,656.75,394.99,657.22z"/>
</g>
</svg>
