<?xml version="1.0" encoding="utf-8"?>
<!-- Generator: Adobe Illustrator 25.0.1, SVG Export Plug-In . SVG Version: 6.00 Build 0)  -->
<svg version="1.1" id="Layer_1" xmlns="http://www.w3.org/2000/svg" xmlns:xlink="http://www.w3.org/1999/xlink" x="0px" y="0px"
	 viewBox="0 0 1073.95 1518.07" style="enable-background:new 0 0 1073.95 1518.07;" xml:space="preserve">
<style type="text/css">
	.st0{fill:#100D84;stroke:#100D84;stroke-width:25;stroke-miterlimit:10;}
	.st1{fill:#100D84;stroke:#100D84;stroke-width:7;stroke-miterlimit:10;}
	.st2{fill:#100D84;stroke:#100D84;stroke-width:4;stroke-miterlimit:10;}
</style>
<g>
	<path class="st0" d="M1024.28,471.3c-12.03-73.77-38.09-142.13-80.77-203.56C865.13,154.89,757.33,87.09,622.85,61.03
		c-15.73-3.05-31.73-3.63-47.69-4.36c-11.47-0.52-22.93-1.09-34.39-1.64h-44c-19.81,2.57-39.54,5.55-59.1,9.63
		c-101.13,21.08-187.13,69.2-258.08,144.23C110.92,281.52,69.85,367.83,52.72,465.9c-2.35,13.45-3.76,27.04-4.33,40.7
		c-0.07,1.48-0.41,2.95-0.62,4.43v70c1.17,11.58,1.97,23.21,3.59,34.73c6.71,48,20.29,93.99,41.05,137.82
		c48.5,102.38,123.13,179.52,223.92,231.14c48.58,24.88,100.13,40.87,154.22,48.33c14.82,2.05,29.78,3.26,44.79,3.37
		c1.81,0.02,3.62,0.4,5.43,0.61h43c10.1-0.86,20.22-1.46,30.29-2.62c51.3-5.91,100.92-18.59,147.59-40.76
		c145.47-69.12,237.01-182.56,275.93-338.63c5.37-21.5,9.02-43.32,9.59-65.56c0.04-1.48,0.39-2.95,0.6-4.43v-78
		C1026.47,495.13,1026.21,483.15,1024.28,471.3z M538.02,1005.78c-242.1,4.81-458.48-197.94-460.72-455.37
		C75.07,293.74,287.44,81.56,537.1,86.24c257.08-3.8,464.05,210.89,460.55,459.7C1000.96,794.75,794.14,1008.83,538.02,1005.78z"/>
</g>
<g>
	<g>
		<path class="st1" d="M149.88,1389.17v-189.15h100.79c9.91,0,18.46,2.16,25.67,6.48c7.2,4.32,12.83,10.04,16.89,17.16
			c4.05,7.12,6.08,15.09,6.08,23.91c0,6.31-1.4,12.48-4.19,18.51c-2.79,6.04-6.62,11.31-11.48,15.81
			c-4.86,4.5-10.63,7.75-17.29,9.73c7.57,1.62,14.19,4.77,19.86,9.46c5.67,4.69,10.04,10.27,13.11,16.75
			c3.06,6.49,4.59,13.42,4.59,20.81c0,9.01-2.03,17.39-6.08,25.13c-4.05,7.75-10,13.92-17.83,18.51
			c-7.84,4.59-17.25,6.89-28.24,6.89H149.88z M169.33,1284.33h73.77c7.38,0,13.82-1.62,19.32-4.86c5.49-3.24,9.73-7.43,12.7-12.56
			c2.97-5.13,4.46-10.67,4.46-16.62c0-5.76-1.35-11.17-4.05-16.21c-2.7-5.04-6.62-9.09-11.75-12.16
			c-5.13-3.06-11.21-4.59-18.24-4.59h-76.2V1284.33z M169.33,1371.6h78.9c7.74,0,14.32-1.66,19.73-5c5.4-3.33,9.5-7.74,12.29-13.24
			c2.79-5.49,4.19-11.3,4.19-17.43c0-5.94-1.49-11.57-4.46-16.89c-2.97-5.31-7.21-9.59-12.7-12.83c-5.5-3.24-12.29-4.86-20.4-4.86
			h-77.55V1371.6z"/>
		<path class="st1" d="M382.26,1389.17c-9.55,0-17.83-2.03-24.86-6.08c-7.03-4.05-12.43-9.68-16.21-16.89
			c-3.78-7.2-5.67-15.4-5.67-24.59v-141.32h19.46v144.02c0,7.93,2.47,14.5,7.43,19.73c4.95,5.23,11.75,7.84,20.4,7.84h50.8v17.29
			H382.26z"/>
		<path class="st1" d="M456.02,1389.17l65.93-172.67c2.7-7.03,6.17-12.11,10.4-15.27c4.23-3.15,9.23-4.73,15-4.73
			c5.95,0,11.08,1.53,15.4,4.59c4.32,3.07,7.74,8.11,10.27,15.13l66.47,172.94h-21.35l-18.92-49.72H495.47l-18.92,49.72H456.02z
			 M501.42,1322.16h91.87l-36.75-99.17c-1.08-2.88-2.3-5.13-3.65-6.76c-1.35-1.62-3.11-2.43-5.27-2.43c-2.34,0-4.1,0.81-5.27,2.43
			c-1.17,1.62-2.39,3.88-3.65,6.76L501.42,1322.16z"/>
		<path class="st1" d="M660.3,1389.17v-17.29h82.41c7.38,0,13.73-1.71,19.05-5.13c5.31-3.42,9.32-7.88,12.02-13.38
			c2.7-5.49,4.05-11.21,4.05-17.16c0-5.95-1.31-11.53-3.92-16.75c-2.61-5.22-6.48-9.46-11.62-12.7c-5.13-3.24-11.31-4.86-18.51-4.86
			h-37.83c-10.81,0-20.13-2.2-27.97-6.62c-7.84-4.41-13.87-10.4-18.1-17.97c-4.23-7.57-6.35-16.03-6.35-25.4
			c0-9.36,2.12-17.97,6.35-25.8c4.23-7.84,10.27-14.14,18.1-18.92c7.84-4.77,17.16-7.16,27.97-7.16h79.17v17.29h-77.82
			c-7.03,0-13.11,1.62-18.24,4.86c-5.13,3.24-9.1,7.43-11.89,12.56c-2.79,5.13-4.19,10.5-4.19,16.08c0,5.58,1.3,10.9,3.92,15.94
			c2.61,5.04,6.39,9.14,11.35,12.29c4.95,3.15,11.03,4.73,18.24,4.73h38.1c11.35,0,20.94,2.25,28.78,6.76
			c7.84,4.5,13.78,10.58,17.83,18.24c4.05,7.66,6.08,16.08,6.08,25.26c0,10.27-2.12,19.59-6.35,27.97
			c-4.23,8.38-10.27,15-18.1,19.86c-7.84,4.86-17.25,7.3-28.24,7.3H660.3z"/>
		<path class="st1" d="M924.02,1389.17c-9.55,0-17.83-2.03-24.86-6.08c-7.03-4.05-12.43-9.68-16.21-16.89
			c-3.78-7.2-5.67-15.4-5.67-24.59v-124.3h-59.99v-17.29h139.43v17.29h-59.99v127c0,7.93,2.47,14.5,7.43,19.73
			c4.95,5.23,11.66,7.84,20.13,7.84h11.89v17.29H924.02z"/>
	</g>
</g>
<g>
	<path class="st2" d="M802.86,326.65c-2.67,72.49-26.28,137.65-68.16,196.62c-26.36,37.1-56.96,70.22-91.69,99.51
		c-6.89,5.81-8.53,10.9-6.15,20.09c9.24,35.67,0.32,68.77-18.47,99.26c-35.59,57.78-88.24,95.13-149.16,122.16
		c-5.36,2.38-10.99,2.89-14.85-2.66c-3.75-5.4-1.49-10.49,2.01-15.17c13.19-17.67,26.01-35.56,35.92-55.36
		c5.14-10.27,9.17-20.93,11.3-32.19c2.29-12.09,1.04-23.6-7.98-33.04c-3.01-3.16-6.56-6.7-11.25-4.59
		c-10.45,4.68-17.76-0.15-23.48-7.77c-8.22-10.97-15.73-9.95-26.53-2.73c-22.21,14.86-45.49,28.13-68.39,41.94
		c-6.09,3.67-12.76,8.12-19.24,1.52c-6.01-6.11-1.99-12.42,1.53-18.24c14.63-24.24,28.95-48.69,44.16-72.57
		c5.08-7.97,6.12-13.49-1.7-20.1c-8.75-7.39-17.44-15.18-10.97-29.03c1.75-3.74-2.58-7.11-5.49-9.71
		c-10.89-9.73-23.74-9.57-36.74-6.34c-26.54,6.59-48.44,22.16-70.44,37.41c-3.88,2.69-7.62,5.58-11.36,8.45
		c-5.3,4.07-10.99,7.17-17.04,2.11c-5.58-4.67-3.68-10.67-1.16-16.25c10.21-22.63,21.7-44.58,36.11-64.86
		c26.54-37.33,57.71-69.64,99.56-90.04c28.85-14.06,58.66-20.23,90.12-9.61c5.76,1.95,8.67-0.86,11.92-4.69
		c47.25-55.54,102.53-101.15,168.91-131.87c45.51-21.06,93.96-30.89,144.3-30.65c9.82,0.05,14.66,4.32,14.45,14.22
		C802.79,317.2,802.88,321.92,802.86,326.65z M539.04,540.09c16.91-0.18,23.19,7.46,21.92,25.53c-1.73,24.5-11.82,45.3-26.72,64.33
		c-16.7,21.33-37.67,37.81-59.3,53.62c-2.63,1.92-7.28,3.43-4.79,7.99c2.04,3.73,5.01,7.5,10.02,7.03c2.64-0.25,5.22-1.68,7.71-2.83
		c109.25-50.47,198.99-122.75,257.82-229.86c4.67-8.5,3.68-13.76-3.1-20.39c-29.24-28.61-58.17-57.54-86.77-86.8
		c-6.4-6.55-11.32-6.88-19.3-2.72c-66.15,34.54-119.73,83.45-164.41,142.61c-26.89,35.6-49.51,73.74-67.75,114.51
		c-3.37,7.52-2.54,13.12,4.14,17.18c7.32,4.45,8.4-3.55,11.01-6.92c11.8-15.24,23.25-30.8,37.37-44.03
		C480.08,557.63,505.66,540.67,539.04,540.09z M502.33,818.53c1.29-0.07,2.61,0.25,3.42-0.25c39.67-24.06,76.58-51.24,98.44-93.78
		c10.74-20.91,16.67-43.12,11.82-67.12c-1.46-7.21-4.05-8.72-10.11-4.36c-28.46,20.45-58.84,37.68-90.38,52.85
		c-7.69,3.7-7.29,7.06-2.34,13.16c10.41,12.83,14.21,27.68,11.12,44.17c-2.87,15.29-9.51,29-16.9,42.47
		C505.24,809.59,501.39,812.97,502.33,818.53z M281.7,597.04c0.64,0.91,1.29,1.81,1.93,2.72c3.33-1.78,6.67-3.53,9.98-5.34
		c10.68-5.86,21.39-11.67,33.12-15.22c21.24-6.42,41.79-8.26,59.05,9.67c4.03,4.18,5.96,1.49,7.72-2.15
		c15.58-32.26,34.04-62.81,54.65-92.08c4.81-6.83,1.04-9.04-4.9-10.16c-14.09-2.66-28.1-2.72-41.87,1.91
		C344.74,505.41,311.15,549.02,281.7,597.04z M391.09,712.44c46.44-28.93,92.63-54.47,126.58-96.16
		c9.5-11.66,15.83-25.24,18.34-40.37c1.97-11.9,1-12.89-11.34-10.63c-18.77,3.44-34.47,12.65-48.41,25.32
		c-32.75,29.78-55.22,67.26-78.21,104.33C395.29,699.41,390.99,703.39,391.09,712.44z M770.88,319.9
		c-33.2,3.06-62.76,8.8-91.53,18.63c-9.01,3.08-6.5,6.36-1.68,11.15c24.78,24.63,49.53,49.3,74.07,74.17
		c5.83,5.91,8.99,6.2,11.86-2.45c9.47-28.48,14.57-57.77,17.3-87.56C781.81,324.02,779.01,318.29,770.88,319.9z"/>
	<path class="st2" d="M405.98,741.35c-24.86,24.9-49.72,49.8-74.57,74.71c-2.98,2.99-5.96,3.51-9.12,0.26
		c-2.87-2.95-5.68-6.13-2-10.08C345.06,779.7,369.86,753.17,405.98,741.35z"/>
	<path class="st2" d="M360.3,694.87c-10.59,31.64-31.88,54.8-55.29,76.39c-3.73,3.44-6.66,3.02-10.01-0.41
		c-3.1-3.18-4.89-6.18-1.07-9.98C316.07,738.87,338.18,716.87,360.3,694.87z"/>
	<path class="st2" d="M291.18,818.79c-3.94-1.02-5.93-3.51-7.76-6.03c-2.05-2.82-0.53-5.21,1.52-7.26
		c15.52-15.55,31.09-31.05,46.58-46.64c3.77-3.8,6.73-2.58,9.87,0.85c2.53,2.75,5.17,5.38,1.62,8.95
		c-16.04,16.14-32.14,32.22-48.29,48.25C293.7,817.92,292.09,818.33,291.18,818.79z"/>
	<path class="st2" d="M670.76,477.66c0,26.33-20.82,47.6-46.69,47.72c-25.73,0.12-48.2-22.22-48.33-48.06
		c-0.13-25.78,21.14-46.88,47.36-46.98C650.71,430.23,670.76,450.14,670.76,477.66z M623.64,503.78
		c14.57,0.1,26.64-11.43,26.86-25.66c0.22-14.2-12.52-27.25-26.84-27.49c-14.3-0.25-26.07,11.43-26.31,26.1
		C597.1,492.27,608.18,503.67,623.64,503.78z"/>
</g>
</svg>
