<?xml version="1.0" encoding="utf-8"?>
<!-- Generator: Adobe Illustrator 25.1.0, SVG Export Plug-In . SVG Version: 6.00 Build 0)  -->
<svg version="1.1" id="Layer_1" xmlns="http://www.w3.org/2000/svg" xmlns:xlink="http://www.w3.org/1999/xlink" x="0px" y="0px"
	 viewBox="0 0 220.6 222.32" style="enable-background:new 0 0 220.6 222.32;" xml:space="preserve">
<style type="text/css">
	.st0{fill:#597CFE;}
	.st1{fill:#0244AE;}
	.st2{fill:#0032A8;}
	.st3{fill:#0037AA;}
	.st4{fill:#E7F3FE;}
</style>
<g>
	<path class="st0" d="M73.75,76.59c-0.03-17.81,0.44-35.65-0.25-53.44C72.98,9.86,83.39-0.12,96.5,0
		c33.63,0.31,67.27,0.08,100.9,0.11c13.64,0.01,22.66,8.04,22.89,21.64c0.42,24.14,0.39,48.29,0.01,72.42
		c-0.21,13.26-9.04,21.29-22.57,21.44c-14.98,0.17-29.97,0.03-44.96,0.06c-1.99,0-3.98,0.19-5.97,0.29c-0.34,0-0.67-0.01-1.01-0.01
		c-12.8,0.03-25.61,0.05-38.41,0.13c-1.13,0.01-2.65-0.06-3.32,0.6c-4.57,4.51-9.9,8.33-13.24,14.01c-3.81,1.83-6.21,5.2-8.93,8.21
		c-2.5,2.24-5.01,4.48-8.14,7.28c0-3.03,0-5.13,0-7.23c0-2.7,0-5.4,0-8.1c0-4.96,0-9.92,0-14.88c0-2.69,0-5.38,0-8.07
		C73.77,97.47,73.76,87.03,73.75,76.59z M146.11,51.82c-3.69,0.33-6.03,2.26-6.2,6.22c-0.16,3.53,3.25,7,6.64,6.55
		c3.66-0.48,6.27-2.59,6.1-6.57C152.49,54.21,150.24,52.01,146.11,51.82z M115.03,57.89c-0.27-3.58-2.12-5.91-6.17-5.97
		c-4.01-0.07-6.16,2.23-6.55,5.99c-0.37,3.47,3.09,7.01,6.51,6.7C112.57,64.25,114.84,62.14,115.03,57.89z M178.75,58.02
		c0.34,4.04,2.65,6.14,6.35,6.51c3.39,0.34,6.87-3.25,6.5-6.67c-0.41-3.77-2.58-6.04-6.56-5.96
		C181.04,51.97,179.15,54.33,178.75,58.02z"/>
	<path class="st1" d="M73.77,138.95c0,2.1,0,4.2,0,7.23c3.13-2.8,5.63-5.04,8.14-7.28c9.97,0.04,19.95,0.03,29.92,0.17
		c3.07,0.04,5.52-0.78,5.53-4.16c0-3.43-2.59-4.17-5.57-4.16c-6.98,0.03-13.97-0.03-20.95-0.06c3.34-5.67,8.67-9.49,13.24-14.01
		c0.66-0.65,2.19-0.59,3.32-0.6c12.8-0.07,25.61-0.09,38.41-0.13c0,35.33-0.01,70.65-0.01,105.98
		c-9.11-8.99-18.29-17.91-27.26-27.04c-2.18-2.21-4.34-3.01-7.39-3c-29.3,0.11-58.59,0.08-87.89,0.06
		c-14.38-0.01-23.13-8.55-23.18-22.84c-0.08-23.47-0.07-46.94,0-70.41c0.04-11.3,6.19-19,16.88-21.53c0.76,0.8,1.75,0.82,2.75,0.82
		c16.68,0,33.35,0,50.03,0c1.16,0,2.34,0.07,3.15-1.01c0.24-0.24,0.54-0.38,0.88-0.4c0.01,10.44,0.02,20.87,0.03,31.31
		c-0.34-0.05-0.65,0.01-0.94,0.19c-0.32-0.01-0.64-0.02-0.96-0.04c-12.92-0.07-25.85-0.13-38.77-0.21c-2.97-0.02-4.94,1.4-4.83,4.38
		c0.11,2.72,2.09,3.86,4.83,3.84c12.93-0.1,25.85-0.14,38.78-0.21c0,0,0.48,0.11,0.48,0.11l0.47-0.15l0.46,0.16l0.49,0
		c0,4.96,0,9.92,0,14.88c-13.3-0.03-26.61-0.04-39.91-0.11c-3.02-0.02-5.57,0.84-5.57,4.19c0,3.36,2.51,4.15,5.57,4.13
		C47.16,138.96,60.47,138.97,73.77,138.95z M72.81,161.98c12.82,0,25.63-0.05,38.45,0.04c3.12,0.02,6.05-0.37,6.09-4.1
		c0.04-3.77-2.96-4.2-6.04-4.19c-25.63,0.03-51.26,0.03-76.9,0c-3.09,0-6.09,0.43-6.11,4.15c-0.02,3.72,2.93,4.16,6.06,4.14
		C47.18,161.93,59.99,161.98,72.81,161.98z"/>
	<path class="st2" d="M145.79,221.93c0-35.33,0.01-70.65,0.01-105.98c0.34,0,0.67,0.01,1.01,0.01c0.02,34.35,0.03,68.7,0.05,103.04
		c0,0.99-0.05,1.99-0.11,2.98c-0.01,0.12-0.26,0.36-0.33,0.33C146.2,222.24,146,222.07,145.79,221.93z"/>
	<path class="st3" d="M72.87,76.99C72.05,78.07,70.87,78,69.72,78c-16.68,0-33.35,0-50.03,0c-1,0-1.99-0.02-2.75-0.82
		C35.58,76.36,54.22,76.69,72.87,76.99z"/>
	<path class="st4" d="M72.84,108.09c-0.34,0.52-0.66,0.49-0.96-0.04C72.2,108.07,72.52,108.08,72.84,108.09z"/>
	<path class="st4" d="M71.88,115.86c0.3-0.5,0.61-0.53,0.95-0.04c0,0-0.47,0.15-0.47,0.15L71.88,115.86z"/>
</g>
</svg>
