<svg id="Layer_1" data-name="Layer 1" xmlns="http://www.w3.org/2000/svg" viewBox="0 0 1063.29 1039.17"><defs><style>.cls-1{fill:#100d84;}</style></defs><g id="VhvnLE.tif"><path class="cls-1" d="M519.83,993.34c-111.18,0-222.46-2.88-333.51,1C109.78,997,28.65,944.27,28.58,841.56c-.15-208-.73-416.11.29-624.16C29.26,138.06,74,82.62,144.46,67.25c12.46-2.72,25-2.19,37.49-2.2C406.12,65,630.3,66.87,854.42,64c75.51-1,156.85,49.34,156.87,153.59,0,208.05.78,416.11-.39,624.16-.45,79-46,134.9-116.47,149.32-10.41,2.13-21.37,2.19-32.08,2.21Q691.09,993.46,519.83,993.34Zm-.1-718.58q-191.91,0-383.84,0c-24.53,0-24.61.09-24.61,25.16q0,270.9,0,541.78c0,48.68,22.31,70.72,71.58,70.74q337.2.1,674.42,0c49,0,71.21-22.2,71.23-71.1q.12-270.89,0-541.77c0-24.72-.09-24.8-25-24.81Q711.66,274.74,519.73,274.76Z"/><path class="cls-1" d="M518,530.43q-142.54,0-285.07,0c-34,0-48.61-12.82-49.68-46.84-1.21-38.21-1.26-76.53.1-114.73,1.2-33.83,17.32-48.06,51.59-48.08q285.08-.19,570.14,0c34.13,0,50.22,14.39,51.4,48.31,1.33,38.2,1.31,76.52.06,114.73-1.12,34-15.72,46.59-49.89,46.61Q662.33,530.5,518,530.43Zm2-80.85c77.66,0,155.32-.5,233,.37,18.27.21,21.8-7.1,21.77-23.3s-3.84-23.45-21.94-23.38q-233,.86-465.94,0c-18.31-.07-21.64,7.52-21.77,23.56C265,443.24,269,450.15,287,450,364.68,449.09,442.34,449.58,520,449.58Z"/><path class="cls-1" d="M700.64,839c-37,0-74.07.17-111.1,0-30.31-.18-45.38-14.89-45.53-45q-.42-85.12,0-170.26c.14-28.52,15.76-44.89,44.2-45.07q112-.69,224,0c29.17.18,44.28,17.43,44.66,51,.6,52.56.19,105.14.12,157.71a87.21,87.21,0,0,1-1.06,12.48c-3.87,27.08-17,38.93-44.18,39.11C774.71,839.2,737.67,839,700.64,839Zm-.28-179.53c-20.28,0-40.57.32-60.83-.12-10.86-.24-14.87,4.32-14.7,14.92.39,23.26.32,46.53,0,69.79-.11,9.74,3.85,14.15,13.76,14.11q60.84-.27,121.68,0c9.83,0,14-4.43,13.93-14.11-.17-23.26-.24-46.53.06-69.79.14-10.57-4.14-15.12-14.9-14.89C739.73,659.8,720,659.5,700.36,659.49Z"/><path class="cls-1" d="M337.67,839c-36.43,0-72.87.18-109.3,0-27.28-.16-42.59-11.84-44-38.85a1708.67,1708.67,0,0,1,0-182.61c1.34-25.14,17.81-38.7,42.94-38.84q112-.6,224,0c28.6.16,44.39,16.36,44.54,44.73q.45,86,0,172c-.17,27.86-15.72,43.25-43.44,43.49C414.12,839.26,375.89,839,337.67,839Zm2.05-80.89c20.27,0,40.56-.17,60.83.07,9.46.1,14.49-3.29,14.38-13.48q-.37-35.79,0-71.59c.12-10-4.22-13.78-14-13.72q-60.82.35-121.67,0c-10.07,0-13.78,4.66-13.7,14.2.19,23.27.25,46.53,0,69.8-.13,10.71,4.63,15,15.14,14.79C300.35,757.9,320,758.13,339.72,758.13Z"/></g></svg>