<?xml version="1.0" encoding="utf-8"?>
<!-- Generator: Adobe Illustrator 25.2.0, SVG Export Plug-In . SVG Version: 6.00 Build 0)  -->
<svg version="1.1" id="Layer_1" xmlns="http://www.w3.org/2000/svg" xmlns:xlink="http://www.w3.org/1999/xlink" x="0px" y="0px"
	 viewBox="0 0 480 480" style="enable-background:new 0 0 480 480;" xml:space="preserve">
<style type="text/css">
	.st0{fill:#5A84FC;}
	.st1{fill:#2962FF;}
	.st2{fill:#FFFFFF;}
</style>
<circle class="st0" cx="240" cy="240" r="200"/>
<circle class="st1" cx="685" cy="150" r="40"/>
<path class="st1" d="M685,220c0,0-90,0-90,57.3c0,32.7,16.4,32.7,90,32.7s90,0,90-32.7C775,220,685,220,685,220z"/>
<circle class="st2" cx="685" cy="140" r="40"/>
<path class="st2" d="M685,210c0,0-90,0-90,57.3c0,32.7,16.4,32.7,90,32.7s90,0,90-32.7C775,210,685,210,685,210z"/>
<g>
	<path class="st1" d="M798,195.7L798,195.7c-7,0-12.7-5.7-12.7-12.6v-80.7c0-7,5.7-12.7,12.7-12.7l0,0c7,0,12.7,5.7,12.7,12.7v80.7
		C810.7,190.1,805,195.7,798,195.7z"/>
	<path class="st1" d="M743,139.5L743,139.5c0-7,5.7-12.7,12.7-12.7h80.7c7,0,12.7,5.7,12.7,12.7l0,0c0,7-5.7,12.6-12.7,12.6h-80.7
		C748.7,152.1,743,146.5,743,139.5z"/>
</g>
<path class="st2" d="M799.7,188.4L799.7,188.4c-7,0-12.7-5.7-12.7-12.6V95.1c0-7,5.7-12.7,12.7-12.7l0,0c7,0,12.7,5.7,12.7,12.7
	v80.7C812.3,182.8,806.6,188.4,799.7,188.4z"/>
<path class="st2" d="M744.7,132.2L744.7,132.2c0-7,5.7-12.7,12.7-12.7H838c7,0,12.7,5.7,12.7,12.7l0,0c0,7-5.7,12.6-12.7,12.6h-80.7
	C750.3,144.9,744.7,139.2,744.7,132.2z"/>
<g>
	<path class="st1" d="M113,258.8c0-24.8-0.1-49.6,0-74.4c0.1-22.2,16.2-38.8,38.3-38.9c37.3-0.2,74.6-0.1,111.9,0
		c1.9,0,4.5-1,5.5,1.1c0.9,2.1-1.8,3.2-2.9,4.8c-7.9,11.1-18.3,14.8-32.1,14.1c-25.2-1.2-50.4-0.4-75.7-0.3
		c-18.6,0-25.1,6.5-25.1,24.9c0,46,0,92,0,138c0,18.2,6.5,24.8,24.5,24.9c46.2,0,92.4,0,138.7,0c4.3,0,8.5-0.3,12.6-1.7
		c7.3-2.5,11.3-9,11.4-18.6c0.1-27.7,0.5-55.4-0.2-83.1c-0.3-11,2.1-19.6,11.1-26.1c2.9-2,5.1-7.4,7.9-6.2c3.6,1.5,1.5,6.8,1.5,10.3
		c0.1,34.8,0.1,69.7,0.1,104.5c0,24.2-16.1,40.5-40.2,40.5c-48.9,0.1-97.8,0-146.7,0c-24.3,0-40.3-16.1-40.3-40.3
		C113,307.9,113,283.4,113,258.8z"/>
	<path class="st1" d="M359,162.5c-0.2,5.1-2.3,10.8-7,15.4c-29.1,28.6-58.2,57.2-87.2,85.9c-2.2,2.2-4.8,3.1-7.6,3.8
		c-14.8,3.5-29.5,6.8-44.2,10.5c-5.9,1.5-6.5-0.5-5.3-5.6c3.6-14.5,7-29,10.4-43.6c0.8-3.6,2.4-6.5,5.1-9.2
		c27.7-28.1,55.3-56.3,83.1-84.4c11.5-11.7,25.5-11.7,37.2-0.4c3,2.9,6.1,5.9,8.9,9C356.9,149.1,359.1,154.9,359,162.5z
		 M237.9,251.5c5.2-2.1,12.9-1.5,18.7-7.4c25.7-25.7,51.8-51.1,77.7-76.6c6-5.9,6-7,0.1-13c-0.9-1-1.9-1.9-2.8-2.8
		c-6.6-6.6-7.1-6.6-13.8,0.2c-24.3,24.6-48.2,49.6-72.9,73.8c-6.8,6.7-9.1,14.4-10.8,22.9C233.7,250.6,233.4,252.4,237.9,251.5z"/>
</g>
<g>
	<path class="st2" d="M126.5,246.3c0-24.8-0.1-49.6,0-74.4c0.1-22.2,16.2-38.8,38.3-38.9c37.3-0.2,74.6-0.1,111.9,0
		c1.9,0,4.5-1,5.5,1.1c0.9,2.1-1.8,3.2-2.9,4.8c-7.9,11.1-18.3,14.8-32.1,14.1c-25.2-1.2-50.4-0.4-75.7-0.3
		c-18.6,0-25.1,6.5-25.1,24.9c0,46,0,92,0,138c0,18.2,6.5,24.8,24.5,24.9c46.2,0,92.4,0,138.7,0c4.3,0,8.5-0.3,12.6-1.7
		c7.3-2.5,11.3-9,11.4-18.6c0.1-27.7,0.5-55.4-0.2-83.1c-0.3-11,2.1-19.6,11.1-26.1c2.9-2,5.1-7.4,7.9-6.2c3.6,1.5,1.5,6.8,1.5,10.3
		c0.1,34.8,0.1,69.7,0.1,104.5c0,24.2-16.1,40.5-40.2,40.5c-48.9,0.1-97.8,0-146.7,0c-24.3,0-40.3-16.1-40.3-40.3
		C126.4,295.4,126.5,270.9,126.5,246.3z"/>
	<path class="st2" d="M372.5,150c-0.2,5.1-2.3,10.8-7,15.4c-29.1,28.6-58.2,57.2-87.2,85.9c-2.2,2.2-4.8,3.1-7.6,3.8
		c-14.8,3.5-29.5,6.8-44.2,10.5c-5.9,1.5-6.5-0.5-5.3-5.6c3.6-14.5,7-29,10.4-43.6c0.8-3.6,2.4-6.5,5.1-9.2
		c27.7-28.1,55.3-56.3,83.1-84.4c11.5-11.7,25.5-11.7,37.2-0.3c3,2.9,6.1,5.9,8.9,9C370.4,136.6,372.6,142.4,372.5,150z M251.4,239
		c5.2-2.1,12.9-1.5,18.7-7.4c25.7-25.7,51.8-51.1,77.7-76.6c6-5.9,6-7,0.1-13c-0.9-1-1.9-1.9-2.8-2.8c-6.6-6.6-7.1-6.6-13.8,0.2
		C307,164,283.1,189,258.4,213.2c-6.8,6.7-9.1,14.4-10.8,22.9C247.2,238.1,246.8,239.9,251.4,239z"/>
</g>
</svg>
