<?xml version="1.0" encoding="utf-8"?>
<!-- Generator: Adobe Illustrator 25.2.0, SVG Export Plug-In . SVG Version: 6.00 Build 0)  -->
<svg version="1.1" id="Layer_1" xmlns="http://www.w3.org/2000/svg" xmlns:xlink="http://www.w3.org/1999/xlink" x="0px" y="0px"
	 viewBox="0 0 1063.3 1039.2" style="enable-background:new 0 0 1063.3 1039.2;" xml:space="preserve">
<style type="text/css">
	.st0{fill:#5A84FC;}
</style>
<rect x="303.6" y="307.3" class="st0" width="68.4" height="379.2"/>
<rect x="164.9" y="154.8" class="st0" width="68.4" height="701.9"/>
<rect x="132.2" y="135.4" class="st0" width="687.5" height="68.4"/>
<polygon class="st0" points="164.9,856.7 164.9,788.3 675,788.3 615.1,856.7 "/>
<polygon class="st0" points="786.5,607.6 718,536 718,154.8 786.5,154.8 "/>
<rect x="442.4" y="307.3" class="st0" width="68.4" height="379.2"/>
<rect x="565.1" y="754" transform="matrix(0.7071 -0.7071 0.7071 0.7071 -315.3178 815.2436)" class="st0" width="522.7" height="68.4"/>
<rect x="789.3" y="526.9" transform="matrix(0.7071 -0.7071 0.7071 0.7071 -316.1837 813.1691)" class="st0" width="68.4" height="522.7"/>
<polygon class="st0" points="647.7,489.1 579.3,559.7 579.3,307.3 647.7,307.3 "/>
<path class="st0" d="M579.8,23.8H372.9c-19.9,0-36,16.1-36,36v78h278.9v-78C615.8,40,599.6,23.8,579.8,23.8z M546.3,130.8H402.5V108
	c0-19.9,16.1-36,36-36h71.8c19.9,0,36,16.1,36,36V130.8z"/>
</svg>
