<?xml version="1.0" encoding="utf-8"?>
<!-- Generator: Adobe Illustrator 25.2.0, SVG Export Plug-In . SVG Version: 6.00 Build 0)  -->
<svg version="1.1" id="Layer_1" xmlns="http://www.w3.org/2000/svg" xmlns:xlink="http://www.w3.org/1999/xlink" x="0px" y="0px"
	 viewBox="0 0 1063.3 1039.2" style="enable-background:new 0 0 1063.3 1039.2;" xml:space="preserve">
<style type="text/css">
	.st0{fill:#6C7A91;}
</style>
<g id="VhvnLE.tif">
	<g>
		<path class="st0" d="M531.8,991.5c-111.2,0-222.5-2.9-333.5,1c-76.5,2.7-157.7-50.1-157.7-152.8c-0.2-208-0.7-416.1,0.3-624.2
			C41.3,136.2,86,80.8,156.5,65.4c12.4-2.7,25-2.2,37.5-2.2c224.2-0.1,448.3,1.8,672.5-1.1c75.5-1,156.9,49.3,156.9,153.6
			c0,208.1,0.8,416.1-0.4,624.2c-0.4,79-46,134.9-116.5,149.3c-10.4,2.1-21.4,2.2-32.1,2.2C760.2,991.6,646,991.5,531.8,991.5z
			 M531.8,272.9c-128,0-255.9,0-383.8,0c-24.5,0-24.6,0.1-24.6,25.2c0,180.6-0.1,361.2,0,541.8c0,48.7,22.3,70.7,71.6,70.7
			c224.8,0.1,449.6,0.1,674.4,0c49,0,71.2-22.2,71.2-71.1c0.1-180.6,0-361.2,0-541.8c0-24.7-0.1-24.8-25-24.8
			C787.6,272.9,659.7,272.9,531.8,272.9z"/>
		<path class="st0" d="M530,528.6c-95,0-190,0-285.1,0c-34,0-48.6-12.8-49.7-46.8c-1.2-38.2-1.3-76.5,0.1-114.7
			c1.2-33.8,17.3-48,51.6-48.1c190-0.1,380.1-0.1,570.1,0c34.1,0,50.2,14.4,51.4,48.3c1.3,38.2,1.3,76.5,0.1,114.7
			c-1.1,34-15.7,46.6-49.9,46.6C722.5,528.7,626.2,528.6,530,528.6z M532,447.8c77.7,0,155.3-0.5,233,0.4
			c18.3,0.2,21.8-7.1,21.8-23.3c0-16.2-3.8-23.5-21.9-23.4c-155.3,0.6-310.6,0.6-465.9,0c-18.3-0.1-21.6,7.5-21.8,23.6
			c-0.1,16.4,3.9,23.3,21.9,23.1C376.7,447.3,454.4,447.8,532,447.8z"/>
		<path class="st0" d="M712.7,837.2c-37,0-74.1,0.2-111.1,0c-30.3-0.2-45.4-14.9-45.5-45c-0.3-56.8-0.3-113.5,0-170.3
			c0.1-28.5,15.8-44.9,44.2-45.1c74.7-0.5,149.3-0.5,224,0c29.2,0.2,44.3,17.4,44.7,51c0.6,52.6,0.2,105.1,0.1,157.7
			c0,4.2-0.5,8.3-1.1,12.5c-3.9,27.1-17,38.9-44.2,39.1C786.7,837.4,749.7,837.2,712.7,837.2z M712.4,657.7
			c-20.3,0-40.6,0.3-60.8-0.1c-10.9-0.2-14.9,4.3-14.7,14.9c0.4,23.3,0.3,46.5,0,69.8c-0.1,9.7,3.8,14.2,13.8,14.1
			c40.6-0.2,81.1-0.2,121.7,0c9.8,0,14-4.4,13.9-14.1c-0.2-23.3-0.2-46.5,0.1-69.8c0.1-10.6-4.1-15.1-14.9-14.9
			C751.8,658,732.1,657.7,712.4,657.7z"/>
		<path class="st0" d="M349.7,837.2c-36.4,0-72.9,0.2-109.3,0c-27.3-0.2-42.6-11.8-44-38.8c-3.2-60.8-3.2-121.8,0-182.6
			c1.4-25.1,17.8-38.7,42.9-38.8c74.7-0.4,149.3-0.4,224,0c28.6,0.2,44.4,16.4,44.5,44.7c0.3,57.3,0.3,114.7,0,172
			c-0.2,27.9-15.7,43.2-43.4,43.5C426.1,837.4,387.9,837.2,349.7,837.2z M351.7,756.3c20.3,0,40.6-0.2,60.8,0.1
			c9.5,0.1,14.5-3.3,14.4-13.5c-0.2-23.9-0.3-47.7,0-71.6c0.1-10-4.2-13.8-14-13.7c-40.6,0.2-81.1,0.2-121.7,0
			c-10.1,0-13.8,4.7-13.7,14.2c0.2,23.3,0.3,46.5,0,69.8c-0.1,10.7,4.6,15,15.1,14.8C312.4,756.1,332,756.3,351.7,756.3z"/>
	</g>
</g>
</svg>
